<svg width="48" height="48" viewBox="0 0 48 48" fill="none" xmlns="http://www.w3.org/2000/svg">
<g clip-path="url(#clip0_1260_44)">
<rect width="48" height="48" fill="#1C1C1C"/>
<path d="M10.872 22.184C10.872 22.184 23.16 23.592 23.16 34.728H24.312C24.312 23.592 36.6 22.184 36.6 22.184V20.904C36.6 20.904 24.312 20.264 24.312 9.128H23.288C23.288 20.264 10.872 20.904 10.872 20.904V22.184ZM7.16 41.64C7.16 41.64 15.096 43.56 15.096 50.984V113.832C15.096 127.4 12.792 132.904 5.368 132.904C-0.52 132.904 -9.096 129.448 -9.096 119.336C-9.096 111.528 11.64 109.992 11.64 109.992V109.352H-10.504V119.336C-10.504 131.24 0.504 135.464 9.72 135.464C25.72 135.464 33.016 114.472 33.144 93.352V41H7.16V41.64Z" fill="#D8FE51"/>
</g>
<defs>
<clipPath id="clip0_1260_44">
<rect width="48" height="48" fill="white"/>
</clipPath>
</defs>
</svg>
